<?xml version="1.0" standalone="no"?>
<!DOCTYPE svg PUBLIC "-//W3C//DTD SVG 20010904//EN"
 "http://www.w3.org/TR/2001/REC-SVG-20010904/DTD/svg10.dtd">
<svg version="1.0" xmlns="http://www.w3.org/2000/svg"
 width="166.000000pt" height="30.000000pt" viewBox="0 0 166.000000 30.000000"
 preserveAspectRatio="xMidYMid meet">
<metadata>
Created by potrace 1.10, written by Peter Selinger 2001-2011
</metadata>
<g transform="translate(0.000000,30.000000) scale(0.100000,-0.100000)"
fill="#000000" stroke="none">
<path d="M165 230 c-10 -11 -16 -22 -13 -25 3 -3 11 1 18 10 16 20 49 19 57
-1 4 -10 -8 -30 -33 -55 -31 -32 -44 -39 -64 -34 -24 5 -24 5 -6 -10 27 -21
28 -20 75 25 42 41 52 75 29 98 -18 18 -43 15 -63 -8z"/>
<path d="M82 147 c-23 -23 -42 -50 -42 -58 0 -17 30 -49 46 -49 16 1 59 38 51
46 -4 4 -16 -1 -27 -11 -10 -9 -26 -15 -35 -12 -25 10 -17 41 19 76 25 25 39
31 55 26 24 -7 29 10 5 19 -25 10 -28 8 -72 -37z"/>
</g>
</svg>
